<svg width="20" height="18" viewBox="0 0 20 18" fill="none" xmlns="http://www.w3.org/2000/svg">
<path d="M1.88761 17.7977C1.36852 17.7977 0.924142 17.6129 0.554474 17.2433C0.184824 16.8736 0 16.4292 0 15.9101C0 15.391 0.184824 14.9467 0.554474 14.577C0.924142 14.2073 1.36852 14.0225 1.88761 14.0225C2.40669 14.0225 2.85107 14.2073 3.22074 14.577C3.59039 14.9467 3.77521 15.391 3.77521 15.9101C3.77521 16.4292 3.59039 16.8736 3.22074 17.2433C2.85107 17.6129 2.40669 17.7977 1.88761 17.7977ZM1.88761 10.7865C1.36852 10.7865 0.924142 10.6016 0.554474 10.232C0.184824 9.86233 0 9.41795 0 8.89887C0 8.37978 0.184824 7.9354 0.554474 7.56574C0.924142 7.19609 1.36852 7.01126 1.88761 7.01126C2.40669 7.01126 2.85107 7.19609 3.22074 7.56574C3.59039 7.9354 3.77521 8.37978 3.77521 8.89887C3.77521 9.41795 3.59039 9.86233 3.22074 10.232C2.85107 10.6016 2.40669 10.7865 1.88761 10.7865ZM1.88761 3.77521C1.36852 3.77521 0.924142 3.59039 0.554474 3.22074C0.184824 2.85107 0 2.40669 0 1.88761C0 1.36852 0.184824 0.924144 0.554474 0.554475C0.924142 0.184826 1.36852 0 1.88761 0C2.40669 0 2.85107 0.184826 3.22074 0.554475C3.59039 0.924144 3.77521 1.36852 3.77521 1.88761C3.77521 2.40669 3.59039 2.85107 3.22074 3.22074C2.85107 3.59039 2.40669 3.77521 1.88761 3.77521ZM8.89887 3.77521C8.37978 3.77521 7.9354 3.59039 7.56573 3.22074C7.19608 2.85107 7.01126 2.40669 7.01126 1.88761C7.01126 1.36852 7.19608 0.924144 7.56573 0.554475C7.9354 0.184826 8.37978 0 8.89887 0C9.41795 0 9.86233 0.184826 10.232 0.554475C10.6016 0.924144 10.7865 1.36852 10.7865 1.88761C10.7865 2.40669 10.6016 2.85107 10.232 3.22074C9.86233 3.59039 9.41795 3.77521 8.89887 3.77521ZM15.9101 3.77521C15.391 3.77521 14.9467 3.59039 14.577 3.22074C14.2073 2.85107 14.0225 2.40669 14.0225 1.88761C14.0225 1.36852 14.2073 0.924144 14.577 0.554475C14.9467 0.184826 15.391 0 15.9101 0C16.4292 0 16.8736 0.184826 17.2433 0.554475C17.6129 0.924144 17.7977 1.36852 17.7977 1.88761C17.7977 2.40669 17.6129 2.85107 17.2433 3.22074C16.8736 3.59039 16.4292 3.77521 15.9101 3.77521ZM8.89887 10.7865C8.37978 10.7865 7.9354 10.6016 7.56573 10.232C7.19608 9.86233 7.01126 9.41795 7.01126 8.89887C7.01126 8.37978 7.19608 7.9354 7.56573 7.56574C7.9354 7.19609 8.37978 7.01126 8.89887 7.01126C9.41795 7.01126 9.86233 7.19609 10.232 7.56574C10.6016 7.9354 10.7865 8.37978 10.7865 8.89887C10.7865 9.41795 10.6016 9.86233 10.232 10.232C9.86233 10.6016 9.41795 10.7865 8.89887 10.7865ZM10.2023 17.7977V14.7101L16.5461 8.39552C16.6914 8.25019 16.8483 8.14794 17.0167 8.08877C17.1852 8.02959 17.3537 7.99999 17.5221 7.99999C17.7059 7.99999 17.8836 8.03446 18.0553 8.10338C18.227 8.17229 18.3831 8.27565 18.5236 8.41348L19.6045 9.50563C19.7303 9.65094 19.8277 9.80824 19.8966 9.97752C19.9655 10.1468 20 10.3161 20 10.4854C20 10.6547 19.9685 10.827 19.9056 11.0022C19.8427 11.1775 19.7423 11.3378 19.6045 11.4831L13.2899 17.7977H10.2023ZM11.5955 16.4045H12.7056L16.4989 12.5932L15.9618 12.0382L15.418 11.4898L11.5955 15.2944V16.4045ZM15.9618 12.0382L15.418 11.4898L16.4989 12.5932L15.9618 12.0382Z" fill="#1C1B1F"/>
</svg>
