<svg width="23" height="19" viewBox="0 0 23 19" fill="none" xmlns="http://www.w3.org/2000/svg">
<path d="M0.594727 19V14.1143H2.09629V17.3715H5.09941V19H0.594727ZM17.6125 19V17.3715H20.6156V14.1143H22.1171V19H17.6125ZM3.34759 16.0143V2.9857H5.34967V16.0143H3.34759ZM6.35072 16.0143V2.9857H7.35176V16.0143H6.35072ZM9.35384 16.0143V2.9857H11.3559V16.0143H9.35384ZM12.357 16.0143V2.9857H15.3601V16.0143H12.357ZM16.3611 16.0143V2.9857H17.3622V16.0143H16.3611ZM18.3632 16.0143V2.9857H19.3643V16.0143H18.3632ZM0.594727 4.88567V0H5.09941V1.62852H2.09629V4.88567H0.594727ZM20.6156 4.88567V1.62852H17.6125V0H22.1171V4.88567H20.6156Z" fill="#414463"/>
</svg>
