<svg width="12" height="12" viewBox="0 0 12 12" fill="none" xmlns="http://www.w3.org/2000/svg">
<path d="M9.47368 12L8.57368 11.1L9.58421 10.1053H6.94737V8.8421H9.58421L8.58947 7.83158L9.47368 6.94737L12 9.47368L9.47368 12ZM1.26316 11.3684C0.915789 11.3684 0.618421 11.2447 0.371053 10.9974C0.123684 10.75 0 10.4526 0 10.1053V7.57895H1.26316V10.1053H3.78947V11.3684H1.26316ZM0 3.78947V1.26316C0 0.915789 0.123684 0.618421 0.371053 0.371053C0.618421 0.123684 0.915789 0 1.26316 0H3.78947V1.26316H1.26316V3.78947H0ZM10.1053 3.78947V1.26316H7.57895V0H10.1053C10.4526 0 10.75 0.123684 10.9974 0.371053C11.2447 0.618421 11.3684 0.915789 11.3684 1.26316V3.78947H10.1053Z" fill="white"/>
</svg>
