<svg width="15" height="16" viewBox="0 0 15 16" fill="none" xmlns="http://www.w3.org/2000/svg">
<path d="M0.232565 5.86241C0.158954 5.80737 0.114258 5.73857 0.0984784 5.656C0.0827119 5.57343 0.106375 5.48761 0.169467 5.39854C0.981684 4.30262 1.99165 3.44765 3.19938 2.83364C4.40711 2.21962 5.69557 1.9126 7.06476 1.9126C8.4412 1.9126 9.73973 2.2086 10.9604 2.8006C12.181 3.3926 13.1989 4.24557 14.0141 5.35951C14.0952 5.46159 14.1208 5.55442 14.0907 5.63799C14.0607 5.72156 14.0091 5.79086 13.936 5.84589C13.8629 5.90094 13.7806 5.9255 13.6892 5.91955C13.5978 5.9136 13.5179 5.86303 13.4493 5.76783C12.7232 4.74297 11.7947 3.95932 10.6637 3.41687C9.53267 2.8744 8.33304 2.60317 7.06476 2.60317C5.80188 2.60317 4.6146 2.8769 3.50294 3.42436C2.39127 3.97182 1.4684 4.75298 0.734308 5.76783C0.661191 5.87492 0.577568 5.93247 0.483437 5.94047C0.389294 5.94849 0.30567 5.92246 0.232565 5.86241ZM9.27905 15.499C7.94507 15.1607 6.85094 14.491 5.99667 13.4899C5.14239 12.4889 4.71525 11.265 4.71525 9.81824C4.71525 9.1777 4.9471 8.64125 5.4108 8.2089C5.87449 7.77653 6.43099 7.56035 7.08031 7.56035C7.72961 7.56035 8.28343 7.77653 8.74177 8.2089C9.2001 8.64125 9.42927 9.1777 9.42927 9.81824C9.42927 10.2603 9.59626 10.632 9.93023 10.9334C10.2642 11.2349 10.6583 11.3856 11.1125 11.3856C11.5667 11.3856 11.9551 11.2342 12.2775 10.9314C12.6 10.6287 12.7613 10.2576 12.7613 9.81824C12.7613 8.29626 12.2022 7.01701 11.084 5.9805C9.9658 4.94397 8.63056 4.42571 7.07826 4.42571C5.52595 4.42571 4.19271 4.94471 3.07855 5.9827C1.96438 7.0207 1.4073 8.29521 1.4073 9.80623C1.4073 10.121 1.44035 10.5144 1.50645 10.9866C1.57255 11.4587 1.71376 12.0071 1.93008 12.6316C1.96414 12.7337 1.96214 12.824 1.92408 12.9026C1.88603 12.9811 1.81993 13.0399 1.72578 13.079C1.63164 13.118 1.54201 13.1171 1.45689 13.0762C1.37177 13.0354 1.31218 12.9682 1.27812 12.8748C1.07783 12.3524 0.934111 11.8432 0.846972 11.3473C0.759846 10.8514 0.716283 10.3417 0.716283 9.81824C0.716283 8.09842 1.34081 6.65661 2.58987 5.49282C3.83892 4.32904 5.33066 3.74714 7.06509 3.74714C8.81247 3.74714 10.3138 4.32904 11.5692 5.49282C12.8246 6.65661 13.4523 8.09842 13.4523 9.81824C13.4523 10.4581 13.2256 10.9924 12.7721 11.4211C12.3187 11.8498 11.7662 12.0641 11.1148 12.0641C10.4658 12.0641 9.9075 11.8498 9.4398 11.4211C8.9721 10.9924 8.73825 10.4581 8.73825 9.81824C8.73825 9.37887 8.57507 9.00781 8.24872 8.70504C7.92235 8.40229 7.5327 8.25092 7.07978 8.25092C6.62276 8.25092 6.22958 8.40162 5.90026 8.70303C5.57093 9.00444 5.40627 9.37618 5.40627 9.81824C5.40627 11.0953 5.78559 12.1617 6.54423 13.0174C7.30286 13.8731 8.27456 14.4702 9.45933 14.8084C9.56421 14.8428 9.6355 14.9 9.67319 14.9801C9.71088 15.0603 9.71671 15.1461 9.69067 15.2377C9.66463 15.3178 9.61756 15.3879 9.54945 15.4479C9.48136 15.508 9.39123 15.525 9.27905 15.499ZM2.71124 1.79851C2.63214 1.84855 2.54676 1.85981 2.45512 1.83228C2.36349 1.80476 2.29664 1.74646 2.25457 1.65739C2.21252 1.56832 2.20076 1.48525 2.21929 1.40819C2.23781 1.33112 2.29164 1.26506 2.38077 1.21001C3.10485 0.814691 3.86398 0.514192 4.65816 0.308516C5.45235 0.102839 6.25955 0 7.07978 0C7.90642 0 8.7137 0.100835 9.50161 0.302504C10.2895 0.504173 11.0516 0.793666 11.7878 1.17098C11.9 1.23104 11.9646 1.30285 11.9816 1.38642C11.9986 1.46999 11.9901 1.55231 11.9561 1.63336C11.922 1.71444 11.8632 1.77599 11.7795 1.81803C11.6959 1.86005 11.6015 1.85355 11.4964 1.79851C10.8114 1.4322 10.0974 1.15597 9.35438 0.969808C8.6114 0.783648 7.85198 0.690568 7.07613 0.690568C6.31342 0.690568 5.56502 0.783401 4.83092 0.969067C4.09682 1.15472 3.39026 1.4312 2.71124 1.79851ZM5.09081 15.2408C4.33769 14.4441 3.75482 13.6249 3.34221 12.7832C2.92959 11.9415 2.72327 10.9531 2.72327 9.81798C2.72327 8.64416 3.14928 7.65567 4.00128 6.85251C4.8533 6.04933 5.87958 5.64774 7.08013 5.64774C8.28069 5.64774 9.31086 6.04933 10.1706 6.85251C11.0304 7.65567 11.4603 8.64425 11.4603 9.81824C11.4603 9.92182 11.4286 10.0053 11.3653 10.0686C11.302 10.1319 11.2185 10.1635 11.1148 10.1635C11.0257 10.1635 10.9458 10.1319 10.8752 10.0686C10.8046 10.0053 10.7693 9.92182 10.7693 9.81824C10.7693 8.83241 10.4043 8.00597 9.67432 7.3389C8.94435 6.67184 8.07956 6.33831 7.07995 6.33831C6.08035 6.33831 5.2195 6.67184 4.49742 7.3389C3.77534 8.00597 3.41429 8.83222 3.41429 9.81765C3.41429 10.8819 3.59907 11.7829 3.96863 12.5205C4.33819 13.2581 4.87449 14.0023 5.57754 14.753C5.65565 14.832 5.69096 14.9173 5.68344 15.0088C5.67593 15.1004 5.64063 15.1777 5.57754 15.2408C5.50943 15.3088 5.42957 15.3441 5.33793 15.3466C5.24629 15.3491 5.16392 15.3139 5.09081 15.2408ZM10.9586 13.8987C9.81486 13.8987 8.82037 13.5119 7.97511 12.7384C7.12985 11.9648 6.70722 10.9914 6.70722 9.81824C6.70722 9.72616 6.73875 9.64559 6.80182 9.57655C6.86487 9.50748 6.948 9.47295 7.05119 9.47295C7.15437 9.47295 7.238 9.50748 7.3021 9.57655C7.36619 9.64559 7.39824 9.72616 7.39824 9.81824C7.39824 10.8094 7.75352 11.6222 8.46408 12.2566C9.17464 12.8909 10.0061 13.2081 10.9586 13.2081C11.0617 13.2081 11.1849 13.2016 11.3281 13.1886C11.4713 13.1756 11.6186 13.156 11.7698 13.13C11.8669 13.109 11.9503 13.1228 12.0199 13.1713C12.0895 13.2198 12.1373 13.2957 12.1634 13.3988C12.1894 13.4904 12.1724 13.5707 12.1123 13.6394C12.0522 13.7082 11.9751 13.7555 11.8809 13.7816C11.6917 13.8316 11.5117 13.8636 11.3409 13.8776C11.1701 13.8917 11.0427 13.8987 10.9586 13.8987Z" fill="#6F7185"/>
</svg>
