<svg width="16" height="16" viewBox="0 0 16 16" fill="none" xmlns="http://www.w3.org/2000/svg">
<circle cx="8" cy="8" r="8" fill="#015CE9"/>
<path d="M7.52841 11V6.63636H8.55682V11H7.52841ZM8.04545 6.01705C7.88258 6.01705 7.74242 5.96307 7.625 5.85511C7.50758 5.74526 7.44886 5.61364 7.44886 5.46023C7.44886 5.30492 7.50758 5.1733 7.625 5.06534C7.74242 4.95549 7.88258 4.90057 8.04545 4.90057C8.21023 4.90057 8.35038 4.95549 8.46591 5.06534C8.58333 5.1733 8.64205 5.30492 8.64205 5.46023C8.64205 5.61364 8.58333 5.74526 8.46591 5.85511C8.35038 5.96307 8.21023 6.01705 8.04545 6.01705Z" fill="white"/>
</svg>
