<svg width="5" height="16" viewBox="0 0 5 16" fill="none" xmlns="http://www.w3.org/2000/svg">
<path d="M2.77572 16C2.22428 16 1.75239 15.8043 1.36004 15.413C0.967019 15.021 0.770508 14.55 0.770508 14C0.770508 13.45 0.967019 12.979 1.36004 12.587C1.75239 12.1957 2.22428 12 2.77572 12C3.32715 12 3.79938 12.1957 4.1924 12.587C4.58475 12.979 4.78092 13.45 4.78092 14C4.78092 14.55 4.58475 15.021 4.1924 15.413C3.79938 15.8043 3.32715 16 2.77572 16ZM2.77572 10C2.22428 10 1.75239 9.804 1.36004 9.412C0.967019 9.02067 0.770508 8.55 0.770508 8C0.770508 7.45 0.967019 6.979 1.36004 6.587C1.75239 6.19567 2.22428 6 2.77572 6C3.32715 6 3.79938 6.19567 4.1924 6.587C4.58475 6.979 4.78092 7.45 4.78092 8C4.78092 8.55 4.58475 9.02067 4.1924 9.412C3.79938 9.804 3.32715 10 2.77572 10ZM2.77572 4C2.22428 4 1.75239 3.804 1.36004 3.412C0.967019 3.02067 0.770508 2.55 0.770508 2C0.770508 1.45 0.967019 0.979333 1.36004 0.588C1.75239 0.196 2.22428 0 2.77572 0C3.32715 0 3.79938 0.196 4.1924 0.588C4.58475 0.979333 4.78092 1.45 4.78092 2C4.78092 2.55 4.58475 3.02067 4.1924 3.412C3.79938 3.804 3.32715 4 2.77572 4Z" fill="#015CE9"/>
</svg>
