<svg width="20" height="19" viewBox="0 0 20 19" fill="none" xmlns="http://www.w3.org/2000/svg">
<path d="M8.88073 14.25H10.3817V8.49998H8.88073V14.25ZM9.6312 6.78845C9.8602 6.78845 10.0521 6.71105 10.207 6.55625C10.362 6.40145 10.4394 6.20963 10.4394 5.98078C10.4394 5.75194 10.362 5.56012 10.207 5.4053C10.0521 5.2505 9.8602 5.1731 9.6312 5.1731C9.4022 5.1731 9.21025 5.2505 9.05535 5.4053C8.90044 5.56012 8.82299 5.75194 8.82299 5.98078C8.82299 6.20963 8.90044 6.40145 9.05535 6.55625C9.21025 6.71105 9.4022 6.78845 9.6312 6.78845ZM9.63287 19C8.31808 19 7.08224 18.7506 5.92535 18.252C4.76844 17.7533 3.7621 17.0765 2.90632 16.2217C2.05053 15.3669 1.37303 14.3616 0.873815 13.206C0.374605 12.0504 0.125 10.8156 0.125 9.50165C0.125 8.18772 0.374497 6.95268 0.87349 5.79655C1.37248 4.6404 2.04968 3.63472 2.90507 2.7795C3.76048 1.92427 4.76638 1.24721 5.92277 0.748326C7.07914 0.249443 8.31473 0 9.62952 0C10.9443 0 12.1802 0.249334 13.337 0.748001C14.494 1.24667 15.5003 1.92342 16.3561 2.77825C17.2119 3.6331 17.8894 4.63834 18.3886 5.79398C18.8878 6.94959 19.1374 8.18437 19.1374 9.4983C19.1374 10.8122 18.8879 12.0473 18.3889 13.2034C17.8899 14.3596 17.2127 15.3652 16.3573 16.2205C15.5019 17.0757 14.496 17.7527 13.3396 18.2516C12.1833 18.7505 10.9477 19 9.63287 19ZM9.6312 17.5C11.866 17.5 13.7589 16.725 15.3099 15.175C16.8609 13.625 17.6364 11.7333 17.6364 9.49998C17.6364 7.26664 16.8609 5.37498 15.3099 3.82498C13.7589 2.27498 11.866 1.49998 9.6312 1.49998C7.3964 1.49998 5.5035 2.27498 3.95248 3.82498C2.40146 5.37498 1.62596 7.26664 1.62596 9.49998C1.62596 11.7333 2.40146 13.625 3.95248 15.175C5.5035 16.725 7.3964 17.5 9.6312 17.5Z" fill="#64748B"/>
</svg>
