<svg width="15" height="17" viewBox="0 0 15 17" fill="none" xmlns="http://www.w3.org/2000/svg">
<path d="M7.89902 16.0912V13.8535L12.4968 9.2769C12.6021 9.17701 12.7158 9.10426 12.8379 9.05865C12.96 9.01306 13.0821 8.99027 13.2041 8.99027C13.3373 8.99027 13.4661 9.01524 13.5906 9.06518C13.715 9.11513 13.8282 9.19005 13.93 9.28992L14.7134 10.0815C14.8046 10.1868 14.8751 10.3008 14.9251 10.4235C14.975 10.5462 15 10.6689 15 10.7916C15 10.9142 14.9772 11.0391 14.9316 11.1661C14.886 11.2932 14.8133 11.4094 14.7134 11.5147L10.1368 16.0912H7.89902ZM8.90879 15.0815H9.71336L12.4626 12.3192L12.0815 11.9086L11.6792 11.5196L8.90879 14.2769V15.0815ZM1.53096 16.0912C1.10316 16.0912 0.741046 15.943 0.444628 15.6466C0.148209 15.3502 0 14.9881 0 14.5603V1.53096C0 1.10316 0.148209 0.741046 0.444628 0.444628C0.741046 0.148209 1.10316 0 1.53096 0H8.25737L12.7036 4.44624V6.81595H11.4333V5.08142H7.62219V1.27034H1.53096C1.4658 1.27034 1.40607 1.29749 1.35177 1.35177C1.29749 1.40608 1.27034 1.4658 1.27034 1.53096V14.5603C1.27034 14.6254 1.29749 14.6852 1.35177 14.7395C1.40607 14.7938 1.4658 14.8209 1.53096 14.8209H6.04234V16.0912H1.53096ZM12.0815 11.9086L11.6792 11.5196L12.4626 12.3192L12.0815 11.9086Z" fill="#6F7185"/>
</svg>
