<svg width="20" height="20" viewBox="0 0 20 20" fill="none" xmlns="http://www.w3.org/2000/svg">
<path d="M18.1768 19.25C15.6602 19.2 13.3102 18.696 11.1268 17.738C8.94352 16.7793 7.03518 15.4833 5.40185 13.85C3.76852 12.2167 2.47285 10.3083 1.51485 8.125C0.556182 5.94167 0.0518491 3.59167 0.00184911 1.075C-0.0148176 0.775 0.0811826 0.521 0.289849 0.313C0.497849 0.104333 0.751849 0 1.05185 0H4.30185C4.58518 0 4.83118 0.104333 5.03985 0.313C5.24785 0.521 5.35185 0.775 5.35185 1.075C5.36852 1.74167 5.42285 2.36233 5.51485 2.937C5.60618 3.51233 5.74352 4.05833 5.92685 4.575C5.99352 4.775 6.00185 4.979 5.95185 5.187C5.90185 5.39567 5.80185 5.575 5.65185 5.725L3.27685 8.1C4.04352 9.73333 5.11852 11.2457 6.50185 12.637C7.88518 14.029 9.41852 15.1333 11.1018 15.95L13.4768 13.575C13.6268 13.425 13.8102 13.3207 14.0268 13.262C14.2435 13.204 14.4518 13.2167 14.6518 13.3C15.2018 13.4667 15.7728 13.5957 16.3648 13.687C16.9562 13.779 17.5602 13.8333 18.1768 13.85C18.4768 13.8667 18.7308 13.9833 18.9388 14.2C19.1475 14.4167 19.2518 14.675 19.2518 14.975V18.2C19.2518 18.5 19.1518 18.75 18.9518 18.95C18.7518 19.15 18.4935 19.25 18.1768 19.25ZM12.5268 16.675C13.3102 16.975 14.1268 17.2123 14.9768 17.387C15.8268 17.5623 16.7102 17.6833 17.6268 17.75C17.6602 17.75 17.6892 17.7373 17.7138 17.712C17.7392 17.6873 17.7518 17.6583 17.7518 17.625V15.475C17.7518 15.4417 17.7392 15.4127 17.7138 15.388C17.6892 15.3627 17.6602 15.35 17.6268 15.35C17.1102 15.3333 16.5895 15.279 16.0648 15.187C15.5395 15.0957 15.0268 14.9667 14.5268 14.8C14.4935 14.8 14.4562 14.8083 14.4148 14.825C14.3728 14.8417 14.3352 14.8583 14.3018 14.875L12.5268 16.675ZM17.7518 9.75C17.7518 7.45 16.9518 5.5 15.3518 3.9C13.7518 2.3 11.8018 1.5 9.50185 1.5V0C10.8518 0 12.1228 0.254 13.3148 0.762C14.5062 1.27067 15.5395 1.96233 16.4148 2.837C17.2895 3.71233 17.9812 4.74567 18.4898 5.937C18.9978 7.129 19.2518 8.4 19.2518 9.75H17.7518ZM13.7518 9.75C13.7518 8.56667 13.3392 7.56267 12.5138 6.738C11.6892 5.91267 10.6852 5.5 9.50185 5.5V4C11.1018 4 12.4602 4.55833 13.5768 5.675C14.6935 6.79167 15.2518 8.15 15.2518 9.75H13.7518ZM2.57685 6.7L4.32685 4.9C4.36018 4.88333 4.38118 4.85433 4.38985 4.813C4.39785 4.771 4.40185 4.73333 4.40185 4.7C4.26852 4.21667 4.15618 3.72067 4.06485 3.212C3.97285 2.704 3.91018 2.175 3.87685 1.625C3.87685 1.59167 3.86452 1.56233 3.83985 1.537C3.81452 1.51233 3.77685 1.5 3.72685 1.5H1.62685C1.59352 1.5 1.56452 1.51233 1.53985 1.537C1.51452 1.56233 1.50185 1.59167 1.50185 1.625C1.55185 2.49167 1.66852 3.34567 1.85185 4.187C2.03518 5.029 2.27685 5.86667 2.57685 6.7Z" fill="#616585"/>
</svg>
