<svg width="15" height="14" viewBox="0 0 15 14" fill="none" xmlns="http://www.w3.org/2000/svg">
<path d="M6.32005 7.77778V0H7.87662V7.77778H6.32005ZM7.09833 14C6.13845 14 5.23369 13.8153 4.38406 13.4458C3.53443 13.0764 2.79181 12.5741 2.15621 11.9389C1.52061 11.3037 1.01797 10.5616 0.64828 9.7125C0.278593 8.86343 0.09375 7.95926 0.09375 7C0.09375 5.96296 0.307779 4.98426 0.735837 4.06389C1.16389 3.14352 1.76707 2.3463 2.54535 1.67222L3.63496 2.76111C3.01233 3.27963 2.5259 3.90833 2.17567 4.64722C1.82544 5.38611 1.65032 6.17037 1.65032 7C1.65032 8.5037 2.18215 9.78704 3.24581 10.85C4.30947 11.913 5.59365 12.4444 7.09833 12.4444C8.61599 12.4444 9.90341 11.913 10.9606 10.85C12.0178 9.78704 12.5463 8.5037 12.5463 7C12.5463 6.17037 12.3745 5.38611 12.0307 4.64722C11.687 3.90833 11.1973 3.27963 10.5617 2.76111L11.6513 1.67222C12.4296 2.3463 13.0328 3.14352 13.4608 4.06389C13.8889 4.98426 14.1029 5.96296 14.1029 7C14.1029 7.95926 13.9181 8.86343 13.5484 9.7125C13.1787 10.5616 12.6793 11.3037 12.0502 11.9389C11.4211 12.5741 10.6817 13.0764 9.83207 13.4458C8.98244 13.8153 8.07119 14 7.09833 14Z" fill="#E50300"/>
</svg>
