<svg width="25" height="25" viewBox="0 0 25 25" fill="none" xmlns="http://www.w3.org/2000/svg">
<path d="M9.0796 24.6635L8.58209 20.7173C8.3126 20.6145 8.05867 20.4912 7.82027 20.3474C7.58188 20.2035 7.34867 20.0493 7.12065 19.8849L3.4204 21.4264L0 15.5688L3.20274 13.1641C3.18201 13.0203 3.17164 12.8815 3.17164 12.7479V11.9155C3.17164 11.7819 3.18201 11.6432 3.20274 11.4993L0 9.09465L3.4204 3.23708L7.12065 4.77855C7.34867 4.61412 7.58706 4.45998 7.83582 4.31611C8.08458 4.17224 8.33333 4.04892 8.58209 3.94615L9.0796 0H15.9204L16.4179 3.94615C16.6874 4.04892 16.9413 4.17224 17.1797 4.31611C17.4181 4.45998 17.6513 4.61412 17.8794 4.77855L21.5796 3.23708L25 9.09465L21.7973 11.4993C21.818 11.6432 21.8284 11.7819 21.8284 11.9155V12.7479C21.8284 12.8815 21.8076 13.0203 21.7662 13.1641L24.9689 15.5688L21.5485 21.4264L17.8794 19.8849C17.6513 20.0493 17.4129 20.2035 17.1642 20.3474C16.9154 20.4912 16.6667 20.6145 16.4179 20.7173L15.9204 24.6635H9.0796ZM11.2562 22.1971H13.7127L14.148 18.9292C14.7906 18.7648 15.3866 18.5233 15.9359 18.2047C16.4853 17.8861 16.988 17.5008 17.444 17.0486L20.5224 18.3126L21.7351 16.2162L19.0609 14.2123C19.1646 13.9246 19.2371 13.6214 19.2786 13.3029C19.3201 12.9843 19.3408 12.6606 19.3408 12.3317C19.3408 12.0029 19.3201 11.6792 19.2786 11.3606C19.2371 11.042 19.1646 10.7389 19.0609 10.4511L21.7351 8.44724L20.5224 6.35084L17.444 7.64567C16.988 7.17296 16.4853 6.77731 15.9359 6.45874C15.3866 6.14017 14.7906 5.89868 14.148 5.73425L13.7438 2.46635H11.2873L10.852 5.73425C10.2094 5.89868 9.61339 6.14017 9.06405 6.45874C8.51472 6.77731 8.01202 7.16268 7.55597 7.61484L4.47761 6.35084L3.26493 8.44724L5.93905 10.4203C5.83541 10.7286 5.76285 11.0369 5.72139 11.3452C5.67993 11.6535 5.6592 11.9823 5.6592 12.3317C5.6592 12.6606 5.67993 12.9791 5.72139 13.2874C5.76285 13.5957 5.83541 13.904 5.93905 14.2123L3.26493 16.2162L4.47761 18.3126L7.55597 17.0178C8.01202 17.4905 8.51472 17.8861 9.06405 18.2047C9.61339 18.5233 10.2094 18.7648 10.852 18.9292L11.2562 22.1971ZM12.5622 16.6478C13.7645 16.6478 14.7906 16.2265 15.6405 15.3838C16.4905 14.5412 16.9154 13.5238 16.9154 12.3317C16.9154 11.1397 16.4905 10.1223 15.6405 9.27963C14.7906 8.43696 13.7645 8.01562 12.5622 8.01562C11.3391 8.01562 10.3078 8.43696 9.46828 9.27963C8.62873 10.1223 8.20895 11.1397 8.20895 12.3317C8.20895 13.5238 8.62873 14.5412 9.46828 15.3838C10.3078 16.2265 11.3391 16.6478 12.5622 16.6478Z" fill="white"/>
</svg>
