<svg width="22" height="20" viewBox="0 0 22 20" fill="none" xmlns="http://www.w3.org/2000/svg">
<path d="M16.3699 5.06849V0.958904H5.41096V5.06849H4.45205V0H17.3288V5.06849H16.3699ZM18.4247 9.45205C18.8128 9.45205 19.1381 9.32078 19.4007 9.05822C19.6632 8.79566 19.7945 8.47032 19.7945 8.08219C19.7945 7.69406 19.6632 7.36872 19.4007 7.10616C19.1381 6.84361 18.8128 6.71233 18.4247 6.71233C18.0365 6.71233 17.7112 6.84361 17.4486 7.10616C17.1861 7.36872 17.0548 7.69406 17.0548 8.08219C17.0548 8.47032 17.1861 8.79566 17.4486 9.05822C17.7112 9.32078 18.0365 9.45205 18.4247 9.45205ZM16.3699 19.0411V12.6027H5.41096V19.0411H16.3699ZM17.3288 20H4.45205V14.5205H0V7.39726C0 6.73744 0.222603 6.18436 0.667808 5.73801C1.11301 5.29167 1.66667 5.06849 2.32877 5.06849H19.4521C20.1119 5.06849 20.665 5.29167 21.1113 5.73801C21.5576 6.18436 21.7808 6.73744 21.7808 7.39726V14.5205H17.3288V20ZM20.8219 13.5616V7.39726C20.8219 7.00913 20.6906 6.68379 20.4281 6.42123C20.1655 6.15868 19.8402 6.0274 19.4521 6.0274H2.32877C1.94064 6.0274 1.6153 6.15868 1.35274 6.42123C1.09018 6.68379 0.958904 7.00913 0.958904 7.39726V13.5616H4.45205V11.6438H17.3288V13.5616H20.8219Z" fill="#666666"/>
</svg>
