<svg width="12" height="12" viewBox="0 0 12 12" fill="none" xmlns="http://www.w3.org/2000/svg">
<circle cx="6" cy="6" r="5.9" fill="white" stroke="#E50300" stroke-width="0.2"/>
<path d="M5.61364 9V4.63636H6.28409V9H5.61364ZM5.95455 3.90909C5.82386 3.90909 5.71117 3.86458 5.61648 3.77557C5.52367 3.68655 5.47727 3.57955 5.47727 3.45455C5.47727 3.32955 5.52367 3.22254 5.61648 3.13352C5.71117 3.04451 5.82386 3 5.95455 3C6.08523 3 6.19697 3.04451 6.28977 3.13352C6.38447 3.22254 6.43182 3.32955 6.43182 3.45455C6.43182 3.57955 6.38447 3.68655 6.28977 3.77557C6.19697 3.86458 6.08523 3.90909 5.95455 3.90909Z" fill="#E50300"/>
</svg>
