<svg width="41" height="25" viewBox="0 0 41 25" fill="none" xmlns="http://www.w3.org/2000/svg">
<path d="M0 25V0H2.88462V25H0ZM7.93269 25V0H10.8173V25H7.93269ZM19.3269 25C18.3654 25 17.5481 24.6635 16.875 23.9904C16.2019 23.3173 15.8654 22.5 15.8654 21.5385V3.46154C15.8654 2.5 16.2019 1.68269 16.875 1.00962C17.5481 0.336539 18.3654 0 19.3269 0H37.3558C38.3494 0 39.1827 0.336539 39.8558 1.00962C40.5288 1.68269 40.8654 2.5 40.8654 3.46154V21.5385C40.8654 22.5 40.5288 23.3173 39.8558 23.9904C39.1827 24.6635 38.3494 25 37.3558 25H19.3269ZM19.3269 22.1154H37.3558C37.516 22.1154 37.6603 22.0513 37.7885 21.9231C37.9167 21.7949 37.9808 21.6667 37.9808 21.5385V3.46154C37.9808 3.33333 37.9167 3.20513 37.7885 3.07692C37.6603 2.94872 37.516 2.88462 37.3558 2.88462H19.3269C19.1667 2.88462 19.0308 2.94872 18.9192 3.07692C18.8064 3.20513 18.75 3.33333 18.75 3.46154V21.5385C18.75 21.6667 18.8064 21.7949 18.9192 21.9231C19.0308 22.0513 19.1667 22.1154 19.3269 22.1154ZM21.1058 18.0288H35.5769L31.0577 11.9231L27.4038 16.7308L24.7115 13.1731L21.1058 18.0288Z" fill="#9C9FBE"/>
</svg>
