<svg width="18" height="20" viewBox="0 0 18 20" fill="none" xmlns="http://www.w3.org/2000/svg">
<path d="M1.80469 19.125C1.30339 19.125 0.877279 18.95 0.526367 18.6C0.175456 18.25 0 17.825 0 17.325V3.925C0 3.425 0.175456 3 0.526367 2.65C0.877279 2.3 1.30339 2.125 1.80469 2.125H3.20833V0H4.7373V2.125H12.332V0H13.8359V2.125H15.2396C15.7409 2.125 16.167 2.3 16.5179 2.65C16.8688 3 17.0443 3.425 17.0443 3.925V17.325C17.0443 17.825 16.8688 18.25 16.5179 18.6C16.167 18.95 15.7409 19.125 15.2396 19.125H1.80469ZM1.80469 17.625H15.2396C15.3064 17.625 15.3733 17.5917 15.4401 17.525C15.5069 17.4583 15.5404 17.3917 15.5404 17.325V7.925H1.50391V17.325C1.50391 17.3917 1.53733 17.4583 1.60417 17.525C1.67101 17.5917 1.73785 17.625 1.80469 17.625ZM1.50391 6.425H15.5404V3.925C15.5404 3.85833 15.5069 3.79167 15.4401 3.725C15.3733 3.65833 15.3064 3.625 15.2396 3.625H1.80469C1.73785 3.625 1.67101 3.65833 1.60417 3.725C1.53733 3.79167 1.50391 3.85833 1.50391 3.925V6.425ZM8.52213 11.7C8.27148 11.7 8.06261 11.6123 7.89551 11.437C7.72841 11.2623 7.64486 11.0583 7.64486 10.825C7.64486 10.575 7.72841 10.3623 7.89551 10.187C8.06261 10.0123 8.27148 9.925 8.52213 9.925C8.77279 9.925 8.98166 10.0123 9.14876 10.187C9.31586 10.3623 9.39941 10.575 9.39941 10.825C9.39941 11.0583 9.31586 11.2623 9.14876 11.437C8.98166 11.6123 8.77279 11.7 8.52213 11.7ZM4.51172 11.7C4.26107 11.7 4.05219 11.6123 3.88509 11.437C3.71799 11.2623 3.63444 11.0583 3.63444 10.825C3.63444 10.575 3.71799 10.3623 3.88509 10.187C4.05219 10.0123 4.26107 9.925 4.51172 9.925C4.76237 9.925 4.97125 10.0123 5.13835 10.187C5.30545 10.3623 5.389 10.575 5.389 10.825C5.389 11.0583 5.30545 11.2623 5.13835 11.437C4.97125 11.6123 4.76237 11.7 4.51172 11.7ZM12.5326 11.7C12.2819 11.7 12.073 11.6123 11.9059 11.437C11.7388 11.2623 11.6553 11.0583 11.6553 10.825C11.6553 10.575 11.7388 10.3623 11.9059 10.187C12.073 10.0123 12.2819 9.925 12.5326 9.925C12.7832 9.925 12.9921 10.0123 13.1592 10.187C13.3263 10.3623 13.4098 10.575 13.4098 10.825C13.4098 11.0583 13.3263 11.2623 13.1592 11.437C12.9921 11.6123 12.7832 11.7 12.5326 11.7ZM8.52213 15.625C8.27148 15.625 8.06261 15.5377 7.89551 15.363C7.72841 15.1877 7.64486 14.9833 7.64486 14.75C7.64486 14.5 7.72841 14.2877 7.89551 14.113C8.06261 13.9377 8.27148 13.85 8.52213 13.85C8.77279 13.85 8.98166 13.9377 9.14876 14.113C9.31586 14.2877 9.39941 14.5 9.39941 14.75C9.39941 14.9833 9.31586 15.1877 9.14876 15.363C8.98166 15.5377 8.77279 15.625 8.52213 15.625ZM4.51172 15.625C4.26107 15.625 4.05219 15.5377 3.88509 15.363C3.71799 15.1877 3.63444 14.9833 3.63444 14.75C3.63444 14.5 3.71799 14.2877 3.88509 14.113C4.05219 13.9377 4.26107 13.85 4.51172 13.85C4.76237 13.85 4.97125 13.9377 5.13835 14.113C5.30545 14.2877 5.389 14.5 5.389 14.75C5.389 14.9833 5.30545 15.1877 5.13835 15.363C4.97125 15.5377 4.76237 15.625 4.51172 15.625ZM12.5326 15.625C12.2819 15.625 12.073 15.5377 11.9059 15.363C11.7388 15.1877 11.6553 14.9833 11.6553 14.75C11.6553 14.5 11.7388 14.2877 11.9059 14.113C12.073 13.9377 12.2819 13.85 12.5326 13.85C12.7832 13.85 12.9921 13.9377 13.1592 14.113C13.3263 14.2877 13.4098 14.5 13.4098 14.75C13.4098 14.9833 13.3263 15.1877 13.1592 15.363C12.9921 15.5377 12.7832 15.625 12.5326 15.625Z" fill="white"/>
</svg>
