<svg width="15" height="15" viewBox="0 0 15 15" fill="none" xmlns="http://www.w3.org/2000/svg">
<path d="M1.5 8.25V9.75H13.5V8.25H1.5ZM1.5 0H13.5C13.9125 0 14.2657 0.14675 14.5597 0.44025C14.8533 0.73425 15 1.0875 15 1.5V9.75C15 10.1625 14.8533 10.5157 14.5597 10.8097C14.2657 11.1033 13.9125 11.25 13.5 11.25H10.5V15L7.5 13.5L4.5 15V11.25H1.5C1.0875 11.25 0.7345 11.1033 0.441 10.8097C0.147 10.5157 0 10.1625 0 9.75V1.5C0 1.0875 0.147 0.73425 0.441 0.44025C0.7345 0.14675 1.0875 0 1.5 0ZM1.5 6H13.5V1.5H1.5V6Z" fill="#414463"/>
</svg>
