<svg width="19" height="15" viewBox="0 0 19 15" fill="none" xmlns="http://www.w3.org/2000/svg">
<path d="M1.875 15C1.35938 15 0.918125 14.8166 0.55125 14.4497C0.18375 14.0822 0 13.6406 0 13.125V1.875C0 1.35938 0.18375 0.918125 0.55125 0.55125C0.918125 0.18375 1.35938 0 1.875 0H16.875C17.3906 0 17.8322 0.18375 18.1997 0.55125C18.5666 0.918125 18.75 1.35938 18.75 1.875V13.125C18.75 13.6406 18.5666 14.0822 18.1997 14.4497C17.8322 14.8166 17.3906 15 16.875 15H1.875ZM9.375 8.4375L1.875 3.75V13.125H16.875V3.75L9.375 8.4375ZM9.375 6.5625L16.875 1.875H1.875L9.375 6.5625ZM1.875 3.75V1.875V13.125V3.75Z" fill="#616585"/>
</svg>
