<svg width="18" height="20" viewBox="0 0 18 20" fill="none" xmlns="http://www.w3.org/2000/svg">
<path d="M8.94736 14.8988L12.7935 11.0526L11.6842 9.94334L9.73681 11.8381V7.20649H8.15792V11.8381L6.21052 9.94334L5.10122 11.0526L8.94736 14.8988ZM1.90285 20C1.37788 20 0.929502 19.8141 0.557712 19.4423C0.185904 19.0705 0 18.6221 0 18.0972V4.00812C0 3.48315 0.185904 3.03477 0.557712 2.66298C0.929502 2.29117 1.37788 2.10527 1.90285 2.10527H6.58707C6.65319 1.52093 6.90825 1.02398 7.35223 0.614398C7.79623 0.2048 8.32794 0 8.94736 0C9.57354 0 10.1086 0.2048 10.5526 0.614398C10.9966 1.02398 11.2483 1.52093 11.3077 2.10527H15.9919C16.5168 2.10527 16.9652 2.29117 17.337 2.66298C17.7088 3.03477 17.8947 3.48315 17.8947 4.00812V18.0972C17.8947 18.6221 17.7088 19.0705 17.337 19.4423C16.9652 19.8141 16.5168 20 15.9919 20H1.90285ZM1.90285 18.4211H15.9919C16.0729 18.4211 16.1471 18.3873 16.2146 18.3199C16.2821 18.2524 16.3158 18.1781 16.3158 18.0972V4.00812C16.3158 3.92713 16.2821 3.8529 16.2146 3.78541C16.1471 3.71793 16.0729 3.68419 15.9919 3.68419H1.90285C1.82186 3.68419 1.74763 3.71793 1.68014 3.78541C1.61266 3.8529 1.57893 3.92713 1.57893 4.00812V18.0972C1.57893 18.1781 1.61266 18.2524 1.68014 18.3199C1.74763 18.3873 1.82186 18.4211 1.90285 18.4211ZM8.94736 2.99593C9.17544 2.99593 9.36403 2.92137 9.51316 2.77224C9.66228 2.62312 9.73684 2.43452 9.73684 2.20645C9.73684 1.97838 9.66228 1.78979 9.51316 1.64066C9.36403 1.49154 9.17544 1.41698 8.94736 1.41698C8.71929 1.41698 8.5307 1.49154 8.38157 1.64066C8.23245 1.78979 8.15789 1.97838 8.15789 2.20645C8.15789 2.43452 8.23245 2.62312 8.38157 2.77224C8.5307 2.92137 8.71929 2.99593 8.94736 2.99593Z" fill="#877CF5"/>
</svg>
