<svg width="27" height="20" viewBox="0 0 27 20" fill="none" xmlns="http://www.w3.org/2000/svg">
<path d="M20.1208 13.1507C19.2509 13.1507 18.5184 12.8539 17.9233 12.2603C17.3281 11.6667 17.0305 10.9361 17.0305 10.0685C17.0305 9.22375 17.3281 8.49863 17.9233 7.89315C18.5184 7.28858 19.2509 6.9863 20.1208 6.9863C20.9677 6.9863 21.6947 7.28858 22.3018 7.89315C22.9079 8.49863 23.211 9.22375 23.211 10.0685C23.211 10.9361 22.9079 11.6667 22.3018 12.2603C21.6947 12.8539 20.9677 13.1507 20.1208 13.1507ZM13.597 20V18.4247C13.597 17.9452 13.7174 17.5 13.9582 17.089C14.1981 16.6781 14.5584 16.3927 15.0391 16.2329C15.8173 15.8904 16.6359 15.6338 17.4948 15.463C18.3527 15.2913 19.228 15.2055 20.1208 15.2055C20.9906 15.2055 21.849 15.2913 22.6959 15.463C23.5429 15.6338 24.3784 15.8904 25.2024 16.2329C25.6603 16.3927 26.0151 16.6781 26.2669 17.089C26.5187 17.5 26.6446 17.9452 26.6446 18.4247V20H13.597ZM10.3007 9.58904C8.99597 9.58904 7.86884 9.11507 6.91934 8.16712C5.96893 7.22009 5.49372 6.09589 5.49372 4.79452C5.49372 3.47032 5.96893 2.34018 6.91934 1.40411C7.86884 0.468037 8.99597 0 10.3007 0C11.6284 0 12.7615 0.468037 13.7 1.40411C14.6385 2.34018 15.1077 3.47032 15.1077 4.79452C15.1077 6.09589 14.6385 7.22009 13.7 8.16712C12.7615 9.11507 11.6284 9.58904 10.3007 9.58904ZM0 20V16.9521C0 16.2671 0.183124 15.6393 0.549372 15.0685C0.915621 14.4977 1.40777 14.0639 2.02581 13.7671C3.30768 13.1279 4.64677 12.637 6.04309 12.2945C7.43941 11.9521 8.85863 11.7808 10.3007 11.7808C10.9874 11.7808 11.6687 11.832 12.3444 11.9342C13.0192 12.0374 13.7 12.1575 14.3867 12.2945L13.494 13.1849C13.1964 13.4817 12.9102 13.7785 12.6356 14.0753C12.2464 13.984 11.8573 13.921 11.4681 13.8863C11.079 13.8525 10.6899 13.8356 10.3007 13.8356C9.01886 13.8356 7.75988 13.984 6.52379 14.2808C5.28771 14.5776 4.0974 15.0228 2.95288 15.6164C2.70108 15.7534 2.48911 15.9361 2.31698 16.1644C2.14576 16.3927 2.06015 16.6553 2.06015 16.9521V17.9452H10.3007V20H0ZM10.3007 7.53425C11.0561 7.53425 11.703 7.26575 12.2414 6.72877C12.7789 6.1927 13.0476 5.54795 13.0476 4.79452C13.0476 4.0411 12.7789 3.39589 12.2414 2.8589C11.703 2.32283 11.0561 2.05479 10.3007 2.05479C9.54534 2.05479 8.89846 2.32283 8.36007 2.8589C7.8226 3.39589 7.55387 4.0411 7.55387 4.79452C7.55387 5.54795 7.8226 6.1927 8.36007 6.72877C8.89846 7.26575 9.54534 7.53425 10.3007 7.53425Z" fill="#5187DB"/>
</svg>
