<svg width="16" height="20" viewBox="0 0 16 20" fill="none" xmlns="http://www.w3.org/2000/svg">
<path d="M7.28747 16.9737H8.86639V15.921H10.1822C10.4062 15.921 10.5938 15.8455 10.7449 15.6943C10.8961 15.5432 10.9717 15.3556 10.9717 15.1316V11.9737C10.9717 11.7497 10.8961 11.5621 10.7449 11.411C10.5938 11.2598 10.4062 11.1842 10.1822 11.1842H6.76112V9.60524H10.9717V8.02631H8.86639V6.97368H7.28747V8.02631H5.97167C5.74765 8.02631 5.56007 8.10189 5.40891 8.25305C5.25777 8.40419 5.1822 8.59177 5.1822 8.81579V11.9737C5.1822 12.1977 5.25777 12.3853 5.40891 12.5364C5.56007 12.6876 5.74765 12.7631 5.97167 12.7631H9.39273V14.3421H5.1822V15.921H7.28747V16.9737ZM1.90285 20C1.37113 20 0.921055 19.8158 0.552633 19.4474C0.184211 19.0789 0 18.6289 0 18.0972V1.90285C0 1.37113 0.184211 0.921055 0.552633 0.552633C0.921055 0.184211 1.37113 0 1.90285 0H10.2632L15.7895 5.52628V18.0972C15.7895 18.6289 15.6053 19.0789 15.2368 19.4474C14.8684 19.8158 14.4183 20 13.8866 20H1.90285ZM9.47371 5.66799V1.57893H1.90285C1.82186 1.57893 1.74763 1.61266 1.68014 1.68014C1.61266 1.74763 1.57892 1.82187 1.57892 1.90285V18.0972C1.57892 18.1781 1.61266 18.2524 1.68014 18.3199C1.74763 18.3873 1.82186 18.4211 1.90285 18.4211H13.8866C13.9676 18.4211 14.0418 18.3873 14.1093 18.3199C14.1768 18.2524 14.2105 18.1781 14.2105 18.0972V5.66799H9.47371Z" fill="#3ECE5E"/>
</svg>
