<svg width="16" height="16" viewBox="0 0 16 16" fill="none" xmlns="http://www.w3.org/2000/svg">
<path d="M4.29022 12.4887C4.5263 12.4887 4.72397 12.4088 4.88324 12.2491C5.04252 12.0894 5.12216 11.8915 5.12216 11.6555C5.12216 11.4194 5.0423 11.2217 4.8826 11.0625C4.72292 10.9032 4.52503 10.8235 4.28895 10.8235C4.05287 10.8235 3.8552 10.9034 3.69592 11.0631C3.53665 11.2228 3.45702 11.4207 3.45702 11.6567C3.45702 11.8928 3.53686 12.0905 3.69655 12.2498C3.85625 12.4091 4.05414 12.4887 4.29022 12.4887ZM4.29022 8.83257C4.5263 8.83257 4.72397 8.75272 4.88324 8.59304C5.04252 8.43333 5.12216 8.23544 5.12216 7.99936C5.12216 7.76329 5.0423 7.56561 4.8826 7.40633C4.72292 7.24707 4.52503 7.16743 4.28895 7.16743C4.05287 7.16743 3.8552 7.24728 3.69592 7.40696C3.53665 7.56667 3.45702 7.76456 3.45702 8.00064C3.45702 8.23671 3.53686 8.43439 3.69655 8.59367C3.85625 8.75293 4.05414 8.83257 4.29022 8.83257ZM4.29022 5.17646C4.5263 5.17646 4.72397 5.09661 4.88324 4.93691C5.04252 4.77722 5.12216 4.57934 5.12216 4.34326C5.12216 4.10718 5.0423 3.9095 4.8826 3.75022C4.72292 3.59094 4.52503 3.51131 4.28895 3.51131C4.05287 3.51131 3.8552 3.59116 3.69592 3.75086C3.53665 3.91056 3.45702 4.10845 3.45702 4.34453C3.45702 4.58061 3.53686 4.77828 3.69655 4.93754C3.85625 5.09682 4.05414 5.17646 4.29022 5.17646ZM7.14931 12.362H12.5068V10.9502H7.14931V12.362ZM7.14931 8.70586H12.5068V7.29414H7.14931V8.70586ZM7.14931 5.04976H12.5068V3.63801H7.14931V5.04976ZM1.70137 16C1.22595 16 0.823532 15.8353 0.494119 15.5059C0.164706 15.1765 0 14.7741 0 14.2986V1.70137C0 1.22595 0.164706 0.823532 0.494119 0.494119C0.823532 0.164706 1.22595 0 1.70137 0H14.2986C14.774 0 15.1765 0.164706 15.5059 0.494119C15.8353 0.823532 16 1.22595 16 1.70137V14.2986C16 14.7741 15.8353 15.1765 15.5059 15.5059C15.1765 15.8353 14.774 16 14.2986 16H1.70137ZM1.70137 14.5883H14.2986C14.371 14.5883 14.4374 14.5581 14.4978 14.4978C14.5581 14.4374 14.5883 14.371 14.5883 14.2986V1.70137C14.5883 1.62896 14.5581 1.56259 14.4978 1.50224C14.4374 1.44191 14.371 1.41175 14.2986 1.41175H1.70137C1.62896 1.41175 1.56258 1.44191 1.50224 1.50224C1.44191 1.56259 1.41175 1.62896 1.41175 1.70137V14.2986C1.41175 14.371 1.44191 14.4374 1.50224 14.4978C1.56258 14.5581 1.62896 14.5883 1.70137 14.5883Z" fill="#414463"/>
</svg>
