<svg width="15" height="15" viewBox="0 0 15 15" fill="none" xmlns="http://www.w3.org/2000/svg">
<path d="M14.1638 15C12.2027 14.961 10.3716 14.5683 8.67027 13.8218C6.96897 13.0748 5.48196 12.0649 4.20923 10.7922C2.93651 9.51948 1.9269 8.03247 1.1804 6.33117C0.433389 4.62987 0.0404019 2.7987 0.00144087 0.837662C-0.0115461 0.603896 0.0632591 0.405974 0.225857 0.243896C0.387934 0.0812987 0.585856 0 0.819623 0H3.35209C3.57287 0 3.76456 0.0812987 3.92716 0.243896C4.08923 0.405974 4.17027 0.603896 4.17027 0.837662C4.18326 1.35714 4.2256 1.84078 4.29729 2.28857C4.36845 2.73688 4.47547 3.16234 4.61832 3.56493C4.67027 3.72078 4.67677 3.87974 4.6378 4.04182C4.59884 4.20442 4.52092 4.34416 4.40404 4.46104L2.55339 6.31169C3.15079 7.58442 3.98845 8.76286 5.06638 9.84701C6.1443 10.9317 7.3391 11.7922 8.65079 12.4286L10.5014 10.5779C10.6183 10.461 10.7612 10.3797 10.93 10.334C11.0988 10.2888 11.2612 10.2987 11.417 10.3636C11.8456 10.4935 12.2905 10.594 12.7518 10.6652C13.2126 10.7369 13.6833 10.7792 14.1638 10.7922C14.3975 10.8052 14.5955 10.8961 14.7575 11.0649C14.9201 11.2338 15.0014 11.4351 15.0014 11.6688V14.1818C15.0014 14.4156 14.9235 14.6104 14.7677 14.7662C14.6118 14.9221 14.4105 15 14.1638 15ZM9.76118 12.9935C10.3716 13.2273 11.0079 13.4122 11.6703 13.5483C12.3326 13.6849 13.0209 13.7792 13.7352 13.8312C13.7612 13.8312 13.7838 13.8213 13.803 13.8016C13.8227 13.7823 13.8326 13.7597 13.8326 13.7338V12.0584C13.8326 12.0325 13.8227 12.0099 13.803 11.9906C13.7838 11.9709 13.7612 11.961 13.7352 11.961C13.3326 11.9481 12.9269 11.9057 12.5181 11.834C12.1087 11.7629 11.7092 11.6623 11.3196 11.5325C11.2936 11.5325 11.2646 11.539 11.2323 11.5519C11.1996 11.5649 11.1703 11.5779 11.1443 11.5909L9.76118 12.9935ZM13.8326 7.5974C13.8326 5.80519 13.2092 4.28571 11.9625 3.03896C10.7157 1.79221 9.19625 1.16883 7.40404 1.16883V0C8.45599 0 9.44638 0.197922 10.3752 0.593766C11.3035 0.99013 12.1087 1.52909 12.7908 2.21065C13.4723 2.89273 14.0113 3.69792 14.4077 4.62623C14.8035 5.55507 15.0014 6.54545 15.0014 7.5974H13.8326ZM10.7157 7.5974C10.7157 6.67532 10.3942 5.89299 9.75105 5.25039C9.10845 4.60727 8.32612 4.28571 7.40404 4.28571V3.11688C8.65079 3.11688 9.70923 3.55195 10.5794 4.42208C11.4495 5.29221 11.8846 6.35065 11.8846 7.5974H10.7157ZM2.00793 5.22078L3.37157 3.81818C3.39754 3.80519 3.41391 3.7826 3.42066 3.75039C3.4269 3.71766 3.43001 3.68831 3.43001 3.66234C3.32612 3.28571 3.23858 2.89922 3.16741 2.50286C3.09573 2.10701 3.0469 1.69481 3.02092 1.26623C3.02092 1.24026 3.01131 1.2174 2.99209 1.19766C2.97235 1.17844 2.943 1.16883 2.90404 1.16883H1.26767C1.2417 1.16883 1.2191 1.17844 1.19988 1.19766C1.18014 1.2174 1.17027 1.24026 1.17027 1.26623C1.20923 1.94156 1.30014 2.60701 1.443 3.2626C1.58586 3.9187 1.77417 4.57143 2.00793 5.22078Z" fill="#616585"/>
</svg>
