<svg width="11" height="12" viewBox="0 0 11 12" fill="none" xmlns="http://www.w3.org/2000/svg">
<path d="M2.27879 12C1.92397 12 1.62093 11.8745 1.36964 11.6234C1.11835 11.3724 0.992699 11.0697 0.992699 10.7153V1.69474H0.28125V0.628693H3.48275V0H7.75145V0.628693H10.953V1.69474H10.2415V10.7153C10.2415 11.0743 10.117 11.3781 9.86799 11.6269C9.61899 11.8756 9.31479 12 8.95542 12H2.27879ZM9.17435 1.69474H2.05986V10.7153C2.05986 10.779 2.08038 10.8314 2.12143 10.8724C2.16248 10.9135 2.21493 10.934 2.27879 10.934H8.95542C9.01015 10.934 9.06033 10.9112 9.10594 10.8656C9.15155 10.8201 9.17435 10.7699 9.17435 10.7153V1.69474ZM3.77009 9.51254H4.83725V3.11616H3.77009V9.51254ZM6.39696 9.51254H7.46411V3.11616H6.39696V9.51254Z" fill="#E50300"/>
</svg>
