<svg width="15" height="15" viewBox="0 0 15 15" fill="none" xmlns="http://www.w3.org/2000/svg">
<path d="M1.4334 14.0256C1.05905 14.0256 0.742193 13.896 0.482816 13.6368C0.223439 13.3776 0.09375 13.061 0.09375 12.6869V2.77437C0.09375 2.40027 0.223439 2.08362 0.482816 1.82441C0.742193 1.56521 1.05905 1.4356 1.4334 1.4356H7.84798L6.73638 2.54647H1.4334C1.37638 2.54647 1.32412 2.57021 1.2766 2.61768C1.2291 2.66516 1.20535 2.7174 1.20535 2.77437V12.6869C1.20535 12.7438 1.2291 12.7961 1.2766 12.8436C1.32412 12.891 1.37638 12.9148 1.4334 12.9148H11.3524C11.4094 12.9148 11.4617 12.891 11.5092 12.8436C11.5567 12.7961 11.5804 12.7438 11.5804 12.6869V7.34035L12.692 6.2295V12.6869C12.692 13.061 12.5623 13.3776 12.303 13.6368C12.0436 13.896 11.7267 14.0256 11.3524 14.0256H1.4334ZM4.54022 9.58209V7.03989L11.2541 0.330416C11.3691 0.215525 11.4954 0.131733 11.6332 0.0790394C11.7709 0.0263463 11.9111 0 12.0536 0C12.1989 0 12.3386 0.0263463 12.4726 0.0790394C12.6065 0.131733 12.7286 0.213149 12.8388 0.323287L13.7694 1.25045C13.8768 1.36533 13.9592 1.49208 14.0167 1.63071C14.0742 1.76933 14.1029 1.90984 14.1029 2.05226C14.1029 2.19468 14.0785 2.33284 14.0295 2.46671C13.9806 2.60057 13.8987 2.72495 13.7837 2.83984L7.04845 9.58209H4.54022ZM5.65182 8.47122H6.57531L11.1942 3.8553L10.7325 3.39386L10.238 2.91818L5.65182 7.50133V8.47122Z" fill="#6F7185"/>
</svg>
