<svg width="16" height="15" viewBox="0 0 16 15" fill="none" xmlns="http://www.w3.org/2000/svg">
<path d="M5.33359 13.5468V11.7968H15.8445V13.5468H5.33359ZM5.33359 8.29684V6.54684H15.8445V8.29684H5.33359ZM5.33359 3.04684V1.29684H15.8445V3.04684H5.33359ZM1.82995 14.4218C1.3482 14.4218 0.935788 14.2505 0.592723 13.9078C0.249658 13.5651 0.078125 13.1531 0.078125 12.6718C0.078125 12.1906 0.249658 11.7786 0.592723 11.4359C0.935788 11.0932 1.3482 10.9218 1.82995 10.9218C2.3117 10.9218 2.72411 11.0932 3.06717 11.4359C3.41024 11.7786 3.58177 12.1906 3.58177 12.6718C3.58177 13.1531 3.41024 13.5651 3.06717 13.9078C2.72411 14.2505 2.3117 14.4218 1.82995 14.4218ZM1.82995 9.17184C1.3482 9.17184 0.935788 9.00049 0.592723 8.65778C0.249658 8.31507 0.078125 7.90309 0.078125 7.42184C0.078125 6.94059 0.249658 6.52862 0.592723 6.18591C0.935788 5.8432 1.3482 5.67184 1.82995 5.67184C2.3117 5.67184 2.72411 5.8432 3.06717 6.18591C3.41024 6.52862 3.58177 6.94059 3.58177 7.42184C3.58177 7.90309 3.41024 8.31507 3.06717 8.65778C2.72411 9.00049 2.3117 9.17184 1.82995 9.17184ZM1.82995 3.92184C1.3482 3.92184 0.935788 3.75049 0.592723 3.40778C0.249658 3.06507 0.078125 2.65309 0.078125 2.17184C0.078125 1.69059 0.249658 1.27862 0.592723 0.935907C0.935788 0.593199 1.3482 0.421844 1.82995 0.421844C2.3117 0.421844 2.72411 0.593199 3.06717 0.935907C3.41024 1.27862 3.58177 1.69059 3.58177 2.17184C3.58177 2.65309 3.41024 3.06507 3.06717 3.40778C2.72411 3.75049 2.3117 3.92184 1.82995 3.92184Z" fill="#1C1B1F"/>
</svg>
