<svg width="16" height="19" viewBox="0 0 16 19" fill="none" xmlns="http://www.w3.org/2000/svg">
<path d="M8.10251 15.1923C7.11687 15.1923 6.16652 15.3509 5.25145 15.6682C4.33639 15.9855 3.49 16.4679 2.71226 17.1154C2.7251 17.2064 2.7604 17.2881 2.81814 17.3606C2.8759 17.433 2.94008 17.4795 3.01067 17.5H13.1847C13.2553 17.4795 13.3195 17.433 13.3773 17.3606C13.435 17.2881 13.4703 17.2064 13.4831 17.1154C12.7182 16.4679 11.8783 15.9855 10.9632 15.6682C10.0481 15.3509 9.09458 15.1923 8.10251 15.1923ZM8.10251 13.6923C9.25371 13.6923 10.3298 13.8673 11.3309 14.2173C12.3319 14.5673 13.2579 15.059 14.1088 15.6923V1.8077C14.1088 1.73077 14.0767 1.66024 14.0125 1.59613C13.9483 1.53203 13.8777 1.49998 13.8007 1.49998H2.40431C2.3273 1.49998 2.2567 1.53203 2.19251 1.59613C2.12835 1.66024 2.09626 1.73077 2.09626 1.8077V15.6923C2.94715 15.059 3.87311 14.5673 4.87415 14.2173C5.8752 13.8673 6.95132 13.6923 8.10251 13.6923ZM8.10251 10.0385C7.62125 10.0385 7.20895 9.867 6.86563 9.52405C6.52232 9.1811 6.35067 8.76923 6.35067 8.28845C6.35067 7.80768 6.52232 7.39583 6.86563 7.05288C7.20895 6.70993 7.62125 6.53845 8.10251 6.53845C8.58378 6.53845 8.99608 6.70993 9.3394 7.05288C9.68271 7.39583 9.85436 7.80768 9.85436 8.28845C9.85436 8.76923 9.68271 9.1811 9.3394 9.52405C8.99608 9.867 8.58378 10.0385 8.10251 10.0385ZM2.40431 19C1.89865 19 1.47064 18.825 1.12027 18.475C0.769909 18.125 0.594727 17.6974 0.594727 17.1923V1.8077C0.594727 1.30257 0.769909 0.875 1.12027 0.525C1.47064 0.175 1.89865 0 2.40431 0H13.8007C14.3064 0 14.7344 0.175 15.0848 0.525C15.4351 0.875 15.6103 1.30257 15.6103 1.8077V17.1923C15.6103 17.6974 15.4351 18.125 15.0848 18.475C14.7344 18.825 14.3064 19 13.8007 19H2.40431ZM8.10251 11.5385C9.00602 11.5385 9.77412 11.2224 10.4068 10.5904C11.0395 9.95833 11.3559 9.19102 11.3559 8.28845C11.3559 7.3859 11.0395 6.6186 10.4068 5.98655C9.77412 5.3545 9.00602 5.03848 8.10251 5.03848C7.19901 5.03848 6.43091 5.3545 5.79822 5.98655C5.16551 6.6186 4.84915 7.3859 4.84915 8.28845C4.84915 9.19102 5.16551 9.95833 5.79822 10.5904C6.43091 11.2224 7.19901 11.5385 8.10251 11.5385Z" fill="#414463"/>
</svg>
